<?xml version="1.0" standalone="no"?>
<!DOCTYPE svg PUBLIC "-//W3C//DTD SVG 20010904//EN"
 "http://www.w3.org/TR/2001/REC-SVG-20010904/DTD/svg10.dtd">
<svg version="1.0" xmlns="http://www.w3.org/2000/svg"
 width="96.000000pt" height="96.000000pt" viewBox="0 0 96.000000 96.000000"
 preserveAspectRatio="xMidYMid meet">

<g transform="translate(0.000000,96.000000) scale(0.100000,-0.100000)"
fill="#000000" stroke="none">
<path d="M322 780 l-23 -30 -104 0 -105 0 0 -270 0 -270 165 0 165 0 0 30 0
30 -135 0 -135 0 0 210 0 210 90 0 c88 0 90 1 112 30 l22 30 106 0 106 0 22
-30 c22 -29 24 -30 112 -30 l90 0 0 -83 0 -83 30 -11 30 -11 0 124 0 124 -105
0 -104 0 -23 30 -22 30 -136 0 -136 0 -22 -30z"/>
<path d="M214 646 c-10 -26 4 -48 28 -44 33 4 33 52 0 56 -13 2 -25 -3 -28
-12z"/>
<path d="M405 641 c-48 -22 -69 -44 -90 -94 -21 -51 -19 -95 8 -147 19 -40 75
-90 98 -90 5 0 11 11 15 24 4 19 -2 31 -33 59 -34 32 -38 40 -38 86 0 44 4 55
33 83 28 29 39 33 83 33 46 0 54 -4 86 -38 28 -31 40 -37 59 -33 13 4 24 10
24 15 0 23 -50 79 -90 99 -53 27 -101 28 -155 3z"/>
<path d="M640 467 c-49 -16 -133 -102 -148 -153 -28 -94 -8 -169 63 -239 70
-71 145 -91 239 -63 55 16 138 99 154 154 28 94 8 169 -63 239 -70 71 -152 91
-245 62z m160 -69 c132 -67 132 -249 0 -316 -24 -12 -60 -22 -80 -22 -20 0
-56 10 -80 22 -132 67 -132 249 0 316 24 12 60 22 80 22 20 0 56 -10 80 -22z"/>
<path d="M690 315 l0 -45 -45 0 c-43 0 -45 -1 -45 -30 0 -29 2 -30 45 -30 l45
0 0 -45 c0 -43 1 -45 30 -45 29 0 30 2 30 45 l0 45 45 0 c43 0 45 1 45 30 0
29 -2 30 -45 30 l-45 0 0 45 c0 43 -1 45 -30 45 -29 0 -30 -2 -30 -45z"/>
</g>
</svg>
