<?xml version="1.0" standalone="no"?>
<!DOCTYPE svg PUBLIC "-//W3C//DTD SVG 20010904//EN"
 "http://www.w3.org/TR/2001/REC-SVG-20010904/DTD/svg10.dtd">
<svg version="1.0" xmlns="http://www.w3.org/2000/svg"
 width="96.000000pt" height="96.000000pt" viewBox="0 0 96.000000 96.000000"
 preserveAspectRatio="xMidYMid meet">

<g transform="translate(0.000000,96.000000) scale(0.100000,-0.100000)"
fill="#000000" stroke="none">
<path d="M253 768 c-12 -13 -23 -34 -25 -47 -2 -18 -12 -27 -35 -33 -17 -5
-41 -20 -52 -34 -20 -25 -21 -40 -21 -221 0 -224 6 -245 68 -262 48 -14 446
-14 494 0 38 10 68 48 68 84 0 8 7 15 15 15 9 0 29 7 45 15 44 23 52 70 48
276 -3 172 -4 178 -27 203 l-24 26 -267 0 c-264 0 -267 0 -287 -22z m535 -235
c-3 -179 -5 -198 -20 -201 -17 -3 -18 9 -18 148 l0 152 -29 29 -29 29 -201 0
c-194 0 -201 1 -201 20 0 19 7 20 250 20 l250 0 -2 -197z m-100 -37 l3 -129
-45 41 c-61 56 -83 55 -154 -10 -31 -29 -69 -63 -84 -77 l-27 -24 -47 42 c-61
53 -87 60 -125 32 l-29 -22 0 134 c0 74 3 137 7 141 4 3 117 5 252 4 l246 -3
3 -129z"/>
<path d="M335 499 c-9 -29 15 -53 44 -44 34 10 25 59 -11 63 -20 2 -28 -2 -33
-19z"/>
</g>
</svg>
