<svg width="15" height="15" viewBox="0 0 15 15" fill="none" xmlns="http://www.w3.org/2000/svg">
<path d="M10.5675 1.67475C9.7125 1.05825 8.6385 0.75 7.3455 0.75C6.36225 0.75 5.532 0.96675 4.85775 1.401C3.7875 2.0805 3.219 3.23475 3.15 4.86225H5.63025C5.63025 4.3875 5.769 3.93225 6.045 3.49125C6.32175 3.05175 6.79125 2.832 7.4535 2.832C8.127 2.832 8.59125 3.0105 8.844 3.36675C9.09825 3.7245 9.225 4.11975 9.225 4.55325C9.225 4.93125 9.036 5.277 8.80725 5.5905C8.67093 5.78512 8.50343 5.95591 8.3115 6.096C8.3115 6.096 6.96675 6.9585 6.3765 7.6515C6.0345 8.05275 6.00375 8.655 5.973 9.5175C5.9715 9.579 5.99475 9.7065 6.20925 9.7065H8.1375C8.3295 9.7065 8.36925 9.56475 8.3715 9.501C8.385 9.1875 8.4195 9.02625 8.47725 8.84475C8.58525 8.502 8.88075 8.2035 9.2115 7.9455L9.894 7.47525C10.5105 6.9945 11.0018 6.60075 11.2193 6.29175C11.5898 5.78475 11.8508 5.15925 11.8508 4.41675C11.85 3.2055 11.4225 2.29275 10.5675 1.67475ZM7.30575 11.193C6.4515 11.1667 5.7465 11.7585 5.7195 12.6855C5.69325 13.611 6.363 14.2237 7.218 14.2485C8.10975 14.2747 8.796 13.7032 8.82375 12.7762C8.84925 11.8492 8.19825 11.2192 7.30575 11.193Z" fill="#F6F6F6"/>
</svg>
