<svg width="15" height="15" viewBox="0 0 15 15" fill="none" xmlns="http://www.w3.org/2000/svg">
<path d="M3.75 1.875C3.25272 1.875 2.77581 2.07254 2.42417 2.42417C2.07254 2.77581 1.875 3.25272 1.875 3.75V11.25C1.875 11.7473 2.07254 12.2242 2.42417 12.5758C2.77581 12.9275 3.25272 13.125 3.75 13.125H6.875C7.04076 13.125 7.19973 13.0592 7.31694 12.9419C7.43415 12.8247 7.5 12.6658 7.5 12.5C7.5 12.3342 7.43415 12.1753 7.31694 12.0581C7.19973 11.9408 7.04076 11.875 6.875 11.875H3.75C3.58424 11.875 3.42527 11.8092 3.30806 11.6919C3.19085 11.5747 3.125 11.4158 3.125 11.25V3.75C3.125 3.58424 3.19085 3.42527 3.30806 3.30806C3.42527 3.19085 3.58424 3.125 3.75 3.125H6.875C7.04076 3.125 7.19973 3.05915 7.31694 2.94194C7.43415 2.82473 7.5 2.66576 7.5 2.5C7.5 2.33424 7.43415 2.17527 7.31694 2.05806C7.19973 1.94085 7.04076 1.875 6.875 1.875H3.75Z" fill="#F6F6F6"/>
<path d="M9.55813 4.55811C9.67533 4.44094 9.83427 4.37512 10 4.37512C10.1657 4.37512 10.3247 4.44094 10.4419 4.55811L12.9419 7.05811C13.059 7.17532 13.1249 7.33426 13.1249 7.49999C13.1249 7.66572 13.059 7.82466 12.9419 7.94186L10.4419 10.4419C10.324 10.5557 10.1661 10.6187 10.0022 10.6173C9.83838 10.6159 9.68162 10.5501 9.56574 10.4343C9.44986 10.3184 9.38413 10.1616 9.3827 9.99774C9.38128 9.83387 9.44428 9.67599 9.55813 9.55811L10.9913 8.12499H6.25C6.08424 8.12499 5.92527 8.05914 5.80806 7.94193C5.69085 7.82472 5.625 7.66575 5.625 7.49999C5.625 7.33423 5.69085 7.17526 5.80806 7.05805C5.92527 6.94084 6.08424 6.87499 6.25 6.87499H10.9913L9.55813 5.44186C9.44096 5.32466 9.37513 5.16572 9.37513 4.99999C9.37513 4.83426 9.44096 4.67532 9.55813 4.55811Z" fill="#F6F6F6"/>
</svg>
