<?xml version="1.0" standalone="no"?>
<!DOCTYPE svg PUBLIC "-//W3C//DTD SVG 20010904//EN"
 "http://www.w3.org/TR/2001/REC-SVG-20010904/DTD/svg10.dtd">
<svg version="1.0" xmlns="http://www.w3.org/2000/svg"
 width="96.000000pt" height="96.000000pt" viewBox="0 0 96.000000 96.000000"
 preserveAspectRatio="xMidYMid meet">

<g transform="translate(0.000000,96.000000) scale(0.100000,-0.100000)"
fill="#ffffff" stroke="none">
<path d="M300 720 l0 -150 30 0 30 0 0 120 0 120 210 0 210 0 0 -330 0 -330
-210 0 -210 0 0 120 0 120 -30 0 -30 0 0 -150 0 -150 270 0 270 0 0 390 0 390
-270 0 -270 0 0 -150z"/>
<path d="M465 600 c-18 -20 -18 -21 15 -55 l34 -35 -182 0 -182 0 0 -30 0 -30
182 0 182 0 -34 -35 -34 -35 22 -22 22 -23 72 73 73 72 -70 70 c-38 38 -72 70
-76 70 -3 0 -14 -9 -24 -20z"/>
</g>
</svg>
