<?xml version="1.0" standalone="no"?>
<!DOCTYPE svg PUBLIC "-//W3C//DTD SVG 20010904//EN"
 "http://www.w3.org/TR/2001/REC-SVG-20010904/DTD/svg10.dtd">
<svg version="1.0" xmlns="http://www.w3.org/2000/svg"
 width="96.000000pt" height="96.000000pt" viewBox="0 0 96.000000 96.000000"
 preserveAspectRatio="xMidYMid meet">

<g transform="translate(0.000000,96.000000) scale(0.100000,-0.100000)"
fill="#ffffff" stroke="none">
<path d="M164 806 c-4 -18 -15 -26 -42 -31 l-36 -7 24 -18 c19 -14 24 -26 22
-49 -4 -35 -3 -36 33 -19 19 9 28 9 37 0 20 -20 30 -13 26 19 -2 23 3 35 21
48 l24 19 -32 7 c-20 4 -36 16 -43 31 -14 31 -26 31 -34 0z"/>
<path d="M330 750 l0 -30 255 0 255 0 0 30 0 30 -255 0 -255 0 0 -30z"/>
<path d="M164 536 c-4 -18 -15 -26 -42 -31 l-36 -7 24 -18 c19 -14 24 -26 22
-49 -4 -35 -3 -36 33 -19 19 9 28 9 37 0 20 -20 30 -13 26 19 -2 23 3 35 21
48 l24 19 -32 7 c-20 4 -36 16 -43 31 -14 31 -26 31 -34 0z"/>
<path d="M330 480 l0 -30 255 0 255 0 0 30 0 30 -255 0 -255 0 0 -30z"/>
<path d="M164 266 c-4 -18 -15 -26 -42 -31 l-36 -7 24 -18 c19 -14 24 -26 22
-49 -4 -35 -3 -36 33 -19 19 9 28 9 37 0 20 -20 30 -13 26 19 -2 23 3 35 21
48 l24 19 -32 7 c-20 4 -36 16 -43 31 -14 31 -26 31 -34 0z"/>
<path d="M330 210 l0 -30 255 0 255 0 0 30 0 30 -255 0 -255 0 0 -30z"/>
</g>
</svg>
