<svg width="15" height="15" viewBox="0 0 15 15" fill="none" xmlns="http://www.w3.org/2000/svg">
<path d="M12.6987 2.48877L7.72119 0.79248C7.66113 0.771973 7.58057 0.761719 7.5 0.761719C7.41943 0.761719 7.33887 0.771973 7.27881 0.79248L2.30127 2.48877C2.17969 2.52979 2.08008 2.67041 2.08008 2.79932V9.86572C2.08008 9.99463 2.16357 10.1646 2.26465 10.2451L7.31396 14.1797C7.36523 14.2192 7.43115 14.2397 7.49853 14.2397C7.56592 14.2397 7.6333 14.2192 7.6831 14.1797L12.7324 10.2451C12.8335 10.166 12.917 9.99609 12.917 9.86572V2.79932C12.9199 2.67041 12.8203 2.53125 12.6987 2.48877ZM10.1733 4.99072L7.05908 9.27832C7.03719 9.30829 7.00853 9.33266 6.97544 9.34947C6.94235 9.36627 6.90576 9.37503 6.86865 9.37503C6.83154 9.37503 6.79495 9.36627 6.76186 9.34947C6.72877 9.33266 6.70012 9.30829 6.67822 9.27832L4.82666 6.72949C4.771 6.65186 4.82666 6.54346 4.92187 6.54346H5.73047C5.80518 6.54346 5.87695 6.58008 5.9209 6.64014L6.86865 7.94385L9.0791 4.8999C9.12305 4.83984 9.19336 4.80322 9.26953 4.80322H10.0781C10.1733 4.80469 10.229 4.91309 10.1733 4.99072Z" fill="#F6F6F6"/>
</svg>
